<svg xmlns="http://www.w3.org/2000/svg" xmlns:xlink="http://www.w3.org/1999/xlink" width="210mm" height="297mm" viewBox="0 0 210 297"><defs><pattern xlink:href="#a" id="b" patternTransform="matrix(10 0 0 10.80332 0 -.175)"/><pattern id="a" patternTransform="scale(10)" height="1" width="2" patternUnits="userSpaceOnUse"><path d="M0-.5h1v2H0z"/></pattern></defs><g fill-rule="evenodd"><path d="M182.94 25.613v135.683l16.85-5.457V34.367z" fill="#353564"/><path d="M182.94 25.613L64.256 227.485V35.44L182.94 161.296z" fill="#8686bf"/><path d="M182.94 25.613L64.256 227.485 8.779 250.96 199.79 34.367z" fill="#4d4d9f"/><path d="M199.79 34.367L8.78 250.96V20.805l191.01 135.034z" fill="#e9e9ff"/><path d="M182.94 161.296L64.256 35.44 8.779 20.805l191.01 135.034z" fill="#afafde"/><path d="M64.256 227.485V35.44L8.779 20.805V250.96z" fill="#d7d7ff"/></g><path opacity=".08" fill="url(#b)" d="M2.268 2.179h209.399V297H2.268z"/><text style="line-height:1.25;-inkscape-font-specification:'Maiandra GD, Normal';text-align:start;font-variant-ligatures:normal;font-variant-caps:normal;font-variant-numeric:normal;font-feature-settings:normal" x="24.893" y="168.967" transform="scale(1.10716 .90321)" font-weight="400" font-size="82.899" font-family="Maiandra GD" letter-spacing="0" word-spacing="0" opacity=".5" fill="navy" stroke-width="2.072" writing-mode="lr"><tspan x="24.893" y="168.967" style="-inkscape-font-specification:'Maiandra GD, Normal';text-align:start;font-variant-ligatures:normal;font-variant-caps:normal;font-variant-numeric:normal;font-feature-settings:normal">F</tspan></text><text style="line-height:1.25;-inkscape-font-specification:'Maiandra GD, Normal';text-align:start;font-variant-ligatures:normal;font-variant-caps:normal;font-variant-numeric:normal;font-feature-settings:normal" x="193.126" y="105.123" transform="scale(.86436 1.15692)" font-weight="400" font-size="49.481" font-family="Maiandra GD" letter-spacing="0" word-spacing="0" opacity=".5" fill="navy" stroke-width="1.237" writing-mode="lr"><tspan x="193.126" y="105.123" style="-inkscape-font-specification:'Maiandra GD, Normal';text-align:start;font-variant-ligatures:normal;font-variant-caps:normal;font-variant-numeric:normal;font-feature-settings:normal">E</tspan></text><path d="M32.506 95.16l-3.362-1.14-2.845 2.124.046-3.55-2.898-2.05 3.39-1.053 1.053-3.39L29.94 89l3.549-.046-2.123 2.845zm159.506-15.118l-4.911-5.414-7.244.977 3.631-6.344-3.167-6.587 7.155 1.493 5.286-5.048.792 7.266 6.434 3.468-6.666 2.998z" opacity=".5" fill="#626291"/></svg>